<svg width="417" height="722" viewBox="0 0 417 722" fill="none" xmlns="http://www.w3.org/2000/svg">
<path d="M427.337 500.825C434.316 495.056 441.677 489.766 449.367 484.992C446.752 480.755 444.076 476.311 441.341 471.661C419.317 482.351 396.223 490.652 372.453 496.424C349.87 499.323 278.41 505.347 278.41 505.347C278.41 505.347 322.047 487.833 346.74 480.371C366.764 474.045 418.348 465.546 436.065 462.692L426.953 447.6C400.405 455.703 373.319 461.89 345.903 466.114C322.2 466.395 298.537 464.35 275.254 460.011C275.254 460.011 321.817 464.442 340.506 455.972C359.195 447.502 371.775 439.442 392.923 438.095C406.006 437.317 415.587 437.391 421.011 437.559L409.136 417.792C388.236 428.293 366.225 436.397 343.524 441.948C320.946 445.004 251.285 455.115 251.285 455.115C272.293 448.642 292.856 440.786 312.838 431.598C334.037 420.904 387.804 412.001 404.192 409.28C402.271 406.14 400.344 402.843 398.255 399.396C375.26 408.14 351.454 414.546 327.197 418.517C303.232 420.138 221.438 420.544 221.438 420.544C244.384 415.767 267.021 409.585 289.22 402.03C312.45 393.215 375.164 390.616 392.805 389.964L383.334 373.63C366.26 377.8 348.976 381.033 331.558 383.314C309.223 384.664 287.022 387.79 265.166 392.661C245.108 398.047 213.103 409.503 213.103 409.503C213.103 409.503 287.418 372.186 316.633 368.149C337.832 366.117 359.172 366.259 380.322 368.572C376.213 361.44 371.941 354.156 367.745 346.792C343.561 354.607 318.364 358.774 292.985 359.156C256.474 354.855 220.248 348.465 184.487 340.015C208.542 342.458 232.723 343.528 256.913 343.218C283.253 342.126 349.171 341.279 364.548 340.956L354.984 324.234C340.57 327.266 292.563 336.951 266.875 334.403C236.379 331.348 174.359 322.924 174.359 322.924C174.359 322.924 234.554 317.995 269.784 315.279C296.795 314.083 323.846 314.562 350.782 316.713C347.672 311.109 344.648 305.738 341.944 300.51C314.947 299.807 288.031 297.381 261.36 293.248C232.096 287.393 173.361 267.919 173.361 267.919C173.361 267.919 228.872 272.293 264.088 277.744C293.782 282.481 328.028 291.428 338.479 293.822C334.26 285.83 330.447 278.214 326.96 270.898C305.785 271.642 284.617 269.589 264.005 264.791C230.648 256.514 191.817 242.418 191.817 242.418C216.046 243.227 240.176 245.796 264.016 250.106C286.643 254.822 311.999 261.153 323.89 264.272C321.163 258.417 318.68 252.788 316.44 247.384C296.436 245.178 276.669 241.242 257.36 235.619C231.848 227.174 195.381 211.174 195.381 211.174C213.112 215.944 231.191 219.343 249.456 221.341C271.518 224.952 293.002 231.427 313.365 240.601C310.696 234.194 308.433 228.163 306.338 222.439C289.931 220.6 273.83 216.703 258.413 210.84C245.199 203.77 203.984 182.47 203.984 182.47L261.593 199.086C276.48 204.041 290.917 210.246 304.749 217.636C302.991 212.526 301.402 207.723 300.056 203.146C289.087 201.637 255.218 196.523 248.026 190.932C239.219 184.151 200.68 165.174 200.68 165.174C200.68 165.174 232.776 177.586 254.142 184.318C269.622 188.937 288.602 194.826 298.054 197.811C296.883 193.697 295.879 189.891 294.963 186.317C288.669 183.829 265.021 174.836 253.653 170.988C240.09 165.434 226.857 159.114 214.016 152.057C214.016 152.057 234.901 158.495 249.457 163.624C260.982 167.465 285.222 177.611 293.67 181.031C293.015 178.152 292.365 175.431 291.878 172.86C278.095 168.984 264.653 164 251.683 157.956C239.34 151.086 216.078 133.361 216.078 133.361C216.078 133.361 238.071 142.187 256.714 151.701C271.031 158.882 285.499 165.9 291.247 168.488L290.215 161.778C280.793 158.038 272.039 152.807 264.287 146.283C252.259 135.16 235 120.563 235 120.563C247.404 123.596 259.026 129.185 269.127 136.974C277.085 143.262 284.121 150.635 290.03 158.88C289.455 154.308 289.233 149.697 289.367 145.087C282.599 141.127 276.776 135.742 272.3 129.304C266.484 121.081 261.162 112.517 256.363 103.658C264.205 105.439 271.123 110.007 275.835 116.515C280.175 125.679 283.013 130.273 283.013 130.273C280.633 122.759 279.444 114.912 279.49 107.019C280.454 97.3917 283.429 88.0654 288.221 79.644C290.731 92.3382 292.072 105.241 292.227 118.191C291.185 126.165 291.066 135.751 290.466 140.801C292.01 135.833 293.959 130.998 296.295 126.346C299.722 119.66 304.098 113.501 309.284 108.061C308.773 115.625 306.516 122.976 302.693 129.536C296.523 138.98 296.035 138.529 291.428 145.63C292.594 149.586 293.59 159.596 296.38 167.176C297.914 157.037 300.939 147.174 305.355 137.907C313.118 122.665 327.434 97.729 327.434 97.729C323.399 113.281 317.77 128.382 310.638 142.792C305.644 150.806 301.202 159.15 297.344 167.765C298.574 171.326 299.896 175.276 301.544 179.526C303.786 169.926 307.021 160.581 311.198 151.642C317.723 139.043 319.378 139.21 327.844 123.861C333.978 111.965 339.194 99.6202 343.447 86.9355C343.447 86.9355 345.859 114.163 339.236 124.096C332.613 134.029 330.031 147.093 320.782 160.354C314.797 168.888 309.406 177.822 304.648 187.093C305.971 191.043 307.538 195.219 309.11 199.551C314.709 186.435 321.36 173.79 328.999 161.741C340.38 144.544 368.774 109.601 368.774 109.601C368.774 109.601 348.675 150.246 340.019 162.541C332.874 173.203 316.008 199.265 310.878 207.095C312.961 212.505 315.456 218.448 317.464 223.941C322.858 207.052 329.442 190.563 337.164 174.595C347.443 155.166 372.152 116.057 372.152 116.057C365.988 139.384 357.62 162.08 347.161 183.84C337.691 199.623 325.094 222.211 320.307 230.812C322.895 237.144 325.645 243.626 328.477 250.183C333.553 229.414 340.071 209.019 347.984 189.145C356.403 172.542 383.877 129.627 383.877 129.627C376.854 152.748 368.648 175.498 359.292 197.786C352.03 211.672 336.067 247.356 331.935 256.714C334.587 262.651 337.482 268.813 340.454 274.894C349.925 255.17 358.2 234.897 365.233 214.187C369.902 195.933 374.378 198.103 381.799 179.97C389.22 161.837 398.189 134.531 398.189 134.531C398.189 134.531 398.056 167.282 391.554 180.508C385.052 193.734 387.004 210.537 379.264 226.405C369.26 246.229 357.298 265.008 343.558 282.461C346.604 288.459 349.651 294.458 352.773 300.375C356.992 289.128 373.05 247.472 380.539 233.342C389.284 217.038 422.067 166.915 422.067 166.915C422.067 166.915 407.883 197.578 402.385 212.49C396.887 227.403 401.099 241.598 388.434 260.184C379.069 274.55 362.942 297.206 356.069 306.756C357.758 309.985 359.522 313.131 361.443 316.271C363.364 319.411 365.134 322.714 367.305 326.236C373.459 311.171 380.745 296.588 389.1 282.615C402.875 260.057 416.413 254.549 425.959 234.443C433.035 217.886 438.762 200.789 443.083 183.32C443.083 183.32 445.132 219.907 434.251 235.749C423.37 251.591 409.301 266.151 405.442 278.64C403.239 290.268 398.066 301.141 390.427 310.201C383.706 317.469 374.674 325.931 370.039 330.128C374.565 337.95 379.58 346.223 384.687 354.885C392 331.516 401.002 308.704 411.623 286.629C427.503 262.39 445.016 239.258 464.04 217.396C464.04 217.396 442.641 256.839 434.261 276.66C425.881 296.482 422.002 314.861 411.128 328.739C403.1 338.888 392.544 352.91 387.531 359.635L397.809 376.564C403.225 363.697 418.346 328.597 426.806 310.971C437.393 289.252 472.223 230.72 472.223 230.72C463.064 249.521 455.198 268.921 448.681 288.784C445.362 308.797 438.433 328.056 428.235 345.62C419.317 359.339 406.903 376.187 401.517 383.477C405.534 390.221 409.625 396.884 413.316 403.327C420.353 382.188 429.216 361.695 439.803 342.078C454.891 316.796 503.092 267.448 503.092 267.448C491.056 282.14 481.087 298.406 473.462 315.791C465.238 337.726 452.487 371.079 440.3 385.561C432.179 395.321 422.978 405.596 417.767 411.231L425.533 423.865C434.282 407.594 443.87 391.785 454.257 376.502C470.726 352.497 524.804 281.468 524.804 281.468C524.804 281.468 497.674 340.151 485.524 364.213C473.374 388.274 463.767 398.174 430.367 431.518C433.542 436.726 436.717 441.934 439.804 446.91C445.298 432.959 453.693 420.324 464.431 409.847C488.905 383.262 515.706 358.919 544.512 337.111C532.167 351.029 520.593 365.613 509.843 380.795C500.705 394.916 455.623 443.664 444.749 455.422C447.424 459.866 450.094 464.152 452.682 468.364C457.415 454.347 465.397 441.637 475.974 431.277C497.245 409.743 550.379 402.83 550.379 402.83C550.379 402.83 502.492 415.808 491.693 429.605C480.894 443.402 484.684 448.27 475.594 457.285C469.436 463.218 462.958 468.808 456.188 474.03C459.194 478.931 460.604 480.993 463.443 485.587C472.596 471.832 485.297 460.803 500.192 453.674C511.534 447.811 524.304 445.319 536.986 446.496C526.283 451.899 516.342 458.701 507.423 466.724C494.868 476.505 481.025 484.504 466.292 490.494C487.4 524.406 502.409 548.284 502.409 548.284L486.348 547.065C486.348 547.065 472.843 525.638 451.201 490.02C440.695 504.329 428.145 517.021 413.956 527.685C393.299 539.962 371.545 550.275 348.98 558.49C364.508 550.583 379.522 541.699 393.933 531.892C407.778 524.094 413.699 512.148 427.337 500.825Z" fill="#FFFFEC" fill-opacity="0.07"/>
<path d="M432.5 523.786C434.306 517.24 436.553 510.824 439.223 504.582C435.794 503.104 432.239 501.525 428.557 499.845C419.626 515.886 409.008 530.922 396.888 544.693C384.261 556.189 342.95 590.63 342.95 590.63C342.95 590.63 362.225 561.099 374.185 545.892C383.765 533.391 411.801 505.98 421.458 496.604L409.368 491.252C396.543 507.651 382.564 523.104 367.538 537.493C353.096 547.862 337.679 556.785 321.508 564.135C321.508 564.135 352.021 546.827 359.859 533.584C367.697 520.341 371.959 509.977 384.372 500.052C392.075 493.946 397.993 489.87 401.397 487.64L385.599 480.603C377.276 496.046 367.239 510.494 355.68 523.67C343.124 535.259 304.676 571.438 304.676 571.438C314.798 558.424 324.052 544.752 332.376 530.511C340.799 514.822 370.002 486.222 378.899 477.501C376.368 476.399 373.766 475.202 371 473.983C360.634 489.246 348.764 503.423 335.57 516.298C321.544 527.603 271.468 563.039 271.468 563.039C283.51 550.233 294.757 536.697 305.146 522.506C315.626 507.097 353.037 478.522 363.594 470.532L350.749 464.572C342.054 474.479 332.825 483.9 323.105 492.794C309.964 503.232 297.669 514.703 286.338 527.098C276.332 539.035 261.597 559.841 261.597 559.841C261.597 559.841 291.201 504.946 307.413 489.898C319.562 479.53 332.734 470.437 346.722 462.76C341.13 460.146 335.373 457.509 329.627 454.789C318.131 469.994 304.443 483.394 289.016 494.546C264.734 507.61 239.729 519.268 214.124 529.461C229.954 520.613 245.27 510.868 259.998 500.272C275.71 488.27 315.844 459.393 325.152 452.58L312.082 446.421C304.531 454.483 279.204 481.085 262.326 490.571C242.276 501.813 200.55 523.317 200.55 523.317C200.55 523.317 235.411 494.394 255.886 477.57C271.966 465.216 288.792 453.873 306.265 443.607C301.944 441.503 297.775 439.503 293.865 437.455C276.977 448.636 259.398 458.725 241.234 467.659C220.736 476.651 176.274 489.953 176.274 489.953C176.274 489.953 212.26 468.761 236.24 456.96C256.521 447.097 281.409 437.862 288.86 434.836C282.83 431.741 277.211 428.702 271.921 425.708C259.232 435.275 245.344 443.119 230.617 449.038C206.563 458.303 176.643 466.347 176.643 466.347C191.876 456.421 207.806 447.62 224.306 440.012C240.237 433.175 258.538 426.157 267.185 422.958C262.991 420.534 259.044 418.144 255.343 415.787C242.104 423.038 228.267 429.123 213.985 433.974C194.679 439.761 165.392 445.619 165.392 445.619C178.337 440.922 190.906 435.233 202.987 428.603C218.094 421.331 234.079 416.067 250.536 412.943C246.14 410.155 242.155 407.423 238.406 404.807C227.535 410.736 215.966 415.268 203.973 418.298C192.813 419.639 158.329 424.283 158.329 424.283L200.87 409.709C212.148 406.349 223.686 403.951 235.363 402.541C232.085 400.157 229.042 397.89 226.247 395.657C218.859 399.449 195.851 410.877 189.027 410.536C180.699 410.158 148.859 415.078 148.859 415.078C148.859 415.078 173.917 408.897 189.939 403.841C201.437 400.02 215.63 395.473 222.722 393.241C220.232 391.218 217.979 389.311 215.878 387.509C210.941 388.688 192.544 393.336 183.905 395.863C173.183 398.285 162.334 400.095 151.41 401.283C151.41 401.283 167.01 396.254 178.159 393.143C186.892 390.545 206.149 386.351 212.81 384.818C211.169 383.331 209.599 381.939 208.194 380.568C198.059 384.117 187.657 386.837 177.088 388.704C166.55 389.793 144.633 388.91 144.633 388.91C144.633 388.91 161.942 384.871 177.488 382.697C189.373 380.949 201.281 379.037 205.926 378.155L202.405 374.475C195.008 376.232 187.379 376.783 179.81 376.11C167.636 374.45 150.753 372.907 150.753 372.907C159.678 369.435 169.223 367.869 178.779 368.309C186.373 368.749 193.868 370.252 201.045 372.775C198.725 370.213 196.605 367.476 194.704 364.586C188.842 365.065 182.949 364.261 177.429 362.231C170.318 359.681 163.365 356.709 156.605 353.331C162.19 351.052 168.405 350.882 174.099 352.854C180.708 356.617 184.428 358.218 184.428 358.218C179.733 354.626 175.627 350.316 172.26 345.447C168.711 339.118 166.526 332.109 165.847 324.873C172.85 331.592 179.225 338.943 184.891 346.832C187.681 352.179 191.731 358.119 193.535 361.48C192.346 357.764 191.464 353.955 190.898 350.092C190.128 344.51 190.166 338.844 191.013 333.271C193.952 338.138 195.728 343.624 196.201 349.3C196.473 357.756 195.979 357.688 196.204 364.033C198.622 365.962 203.54 371.684 208.515 375.14C205.096 368.251 202.711 360.89 201.438 353.297C199.65 340.594 197.718 319.115 197.718 319.115C201.929 330.406 204.968 342.105 206.785 354.026C207.164 361.098 208.024 368.135 209.36 375.087C211.648 376.746 214.16 378.603 217 380.506C214.247 373.644 212.215 366.51 210.936 359.222C209.525 348.675 210.614 348.066 209.211 334.994C207.863 325.046 205.757 315.218 202.913 305.596C202.913 305.596 216.108 321.286 216.312 330.237C216.516 339.189 220.549 348.325 220.572 360.451C220.566 368.269 221.097 376.077 222.163 383.82C224.675 385.677 227.433 387.569 230.263 389.554C228.06 379.087 226.707 368.458 226.216 357.769C225.81 342.308 228.223 308.625 228.223 308.625C228.223 308.625 233.36 342.242 233.331 353.519C233.528 363.144 234.378 386.411 234.594 393.428C238.202 395.856 242.291 398.434 245.887 400.944C241.936 388.248 238.887 375.285 236.763 362.153C234.719 345.795 233.076 311.139 233.076 311.139C239.323 328.121 243.946 345.665 246.881 363.533C247.853 377.303 249.831 396.599 250.589 403.942C254.903 406.719 259.381 409.519 263.942 412.329C258.126 397.386 253.357 382.052 249.669 366.438C247.699 352.616 246.117 314.432 246.117 314.432C251.749 331.657 256.494 349.164 260.334 366.882C261.845 378.537 267.389 407.327 268.876 414.854C273.059 417.36 277.489 419.901 281.93 422.358C279.264 406.166 275.627 390.152 271.039 374.402C266.055 361.179 269.738 360.587 266.497 346.254C263.256 331.922 257.019 311.288 257.019 311.288C257.019 311.288 271.027 331.466 272.722 342.388C274.417 353.311 282.844 362.794 284.915 375.873C287.296 392.356 288.026 409.039 287.092 425.672C291.545 428.046 295.997 430.421 300.461 432.713C298.215 423.989 290.16 391.489 288.682 379.586C287.041 365.808 285.62 320.911 285.62 320.911C285.62 320.911 290.097 345.851 293.134 357.378C296.171 368.905 304.865 375.814 305.08 392.681C305.506 405.535 305.344 426.392 305.231 435.216C307.657 436.473 310.094 437.647 312.625 438.749C315.156 439.852 317.665 441.12 320.513 442.35C317.813 430.447 316.016 418.354 315.139 406.175C313.897 386.39 319.845 377.183 317.061 360.724C314.285 347.508 310.449 334.54 305.588 321.949C305.588 321.949 322.587 343.545 322.717 357.959C322.846 372.372 320.467 387.37 323.468 396.703C327.117 404.795 328.616 413.7 327.821 422.552C326.818 429.908 324.909 438.993 323.867 443.565C330.013 446.423 336.653 449.349 343.516 452.473C337.956 434.971 333.674 417.083 330.703 398.952C330.031 377.229 330.84 355.484 333.122 333.869C333.122 333.869 336.943 367.307 340.322 383.089C343.701 398.872 349.224 411.832 348.513 425.036C347.947 434.725 347.494 447.88 347.307 454.169L360.904 460.147C358.696 449.912 352.887 421.844 350.502 407.376C347.663 389.478 343.882 338.535 343.882 338.535C346.343 354.025 349.856 369.328 354.397 384.334C360.967 398.057 364.995 412.87 366.285 428.048C366.708 440.313 366.329 456.004 366.156 462.799C371.525 465.215 376.905 467.548 381.944 469.919C377.174 453.905 373.803 437.501 371.868 420.896C370.262 398.872 378.646 347.82 378.646 347.82C377.573 362.023 378.445 376.306 381.239 390.266C385.623 407.28 392.137 433.256 390.879 447.396C390.089 456.886 388.856 467.157 388.079 472.86L398.285 477.281C396.661 463.521 395.75 449.684 395.557 435.827C395.349 413.994 398.017 347.093 398.017 347.093C398.017 347.093 406.593 394.817 409.48 414.826C412.366 434.835 410.722 445.05 404.547 479.903C408.738 481.737 412.929 483.571 416.966 485.3C414.34 474.366 414.062 462.992 416.152 451.936C419.752 425.075 425.746 398.59 434.061 372.8C432.464 386.662 431.627 400.6 431.554 414.552C432.014 427.158 425.288 476.501 423.665 488.402C427.221 489.981 430.705 491.466 434.107 492.94C430.985 482.293 430.421 471.051 432.462 460.136C436.267 437.756 465.937 410.651 465.937 410.651C465.937 410.651 442.1 439.225 441.4 452.346C440.701 465.468 445.124 466.829 443.417 476.278C442.186 482.572 440.611 488.793 438.698 494.913C442.653 496.631 444.407 497.291 448.126 498.893C447.833 486.505 450.892 474.265 456.976 463.478C461.421 454.997 468.195 447.972 476.493 443.239C472.242 451.163 469.06 459.619 467.032 468.384C463.526 479.795 458.463 490.664 451.988 500.682C479.545 512.436 499.038 520.649 499.038 520.649L488.646 526.81C488.646 526.81 471.131 519.455 442.513 506.883C442.214 520.193 439.963 533.389 435.834 546.045C428.424 562.473 419.496 578.168 409.166 592.922C415.305 581.384 420.707 569.467 425.342 557.243C430.493 546.496 428.992 536.61 432.5 523.786Z" fill="#FFFFEC" fill-opacity="0.2"/>
</svg>
