<svg width="271" height="300" viewBox="0 0 271 300" fill="none" xmlns="http://www.w3.org/2000/svg">
<path d="M66.5484 96.6665C70.2375 94.0422 73.7448 91.172 77.0461 88.0757C78.7537 89.8871 80.5535 91.7544 82.4456 93.6773C74.4328 102.93 67.4347 113.01 61.5711 123.743C57.2485 134.275 45.0917 168.008 45.0917 168.008C45.0917 168.008 59.1972 149.199 65.9967 138.239C71.6434 129.387 82.4232 105.573 86.0945 97.3859L92.2043 103.74C84.8552 115.513 78.3618 127.794 72.774 140.488C69.5711 151.9 67.4961 163.592 66.5788 175.399C66.5788 175.399 70.4644 152.337 76.9736 144.407C83.4828 136.477 89.0034 131.444 92.391 121.405C94.4597 115.187 95.6638 110.55 96.2846 107.909L104.295 116.202C96.5183 124.937 89.7559 134.519 84.1373 144.764C79.7397 155.273 65.8417 187.608 65.8417 187.608C71.6865 178.3 78.1418 169.385 85.1651 160.924C93.0732 152.07 104.331 127.254 107.766 119.692C109.034 121.026 110.377 122.383 111.771 123.838C104.573 133.812 98.398 144.481 93.3408 155.682C89.4565 167.046 78.6758 206.497 78.6758 206.497C83.952 196.033 89.8675 185.901 96.389 176.157C103.653 166.078 113.023 136.126 115.621 127.691L122.284 134.379C118.061 142.085 114.263 150.014 110.907 158.131C107.365 168.744 102.982 179.061 97.8008 188.986C92.604 197.977 82.9295 211.951 82.9295 211.951C82.9295 211.951 110.569 180.889 116.3 167.302C120.024 157.327 122.717 147.002 124.337 136.488C127.25 139.395 130.215 142.401 133.229 145.38C126.325 156.049 121.051 167.679 117.583 179.887C114.935 198.077 113.333 216.4 112.786 234.764C114.719 222.831 117.332 211.013 120.612 199.371C124.548 186.791 133.487 155.064 135.633 147.68L142.472 154.463C139.142 161.032 128.252 182.964 126.159 195.7C123.688 210.824 119.73 241.867 119.73 241.867C119.73 241.867 129.9 213.434 135.771 196.77C139.844 183.88 143.114 170.753 145.561 157.466C147.865 159.693 150.067 161.848 152.242 163.831C149.088 176.96 146.776 190.273 145.321 203.69C144.362 218.581 146.166 249.468 146.166 249.468C146.166 249.468 151.237 222.092 153.162 204.378C154.717 189.424 154.828 171.727 155.024 166.37C158.338 169.442 161.523 172.269 164.604 174.9C161.505 185.03 159.757 195.519 159.407 206.095C159.088 223.276 160.871 243.854 160.871 243.854C163.615 232.048 165.497 220.062 166.501 207.99C167.151 196.452 167.375 183.386 167.407 177.24C169.882 179.314 172.28 181.242 174.6 183.023C173.076 192.97 172.419 203.026 172.636 213.079C173.413 226.493 176.421 246.176 176.421 246.176C176.412 236.995 177.11 227.824 178.509 218.744C179.62 207.622 179.273 196.408 177.478 185.386C180.227 187.505 182.847 189.378 185.34 191.13C184.105 199.292 183.903 207.573 184.74 215.777C186.444 223.074 191.398 245.736 191.398 245.736L190.828 215.762C190.362 207.931 189.233 200.156 187.454 192.519C189.694 194.03 191.808 195.419 193.845 196.661C193.154 202.154 191.241 219.173 193.011 223.37C195.146 228.501 199.324 249.57 199.324 249.57C199.324 249.57 197.483 232.463 196.996 221.272C196.768 213.198 196.381 203.27 196.162 198.318C197.997 199.416 199.706 200.393 201.313 201.299C201.7 204.66 202.983 217.245 203.371 223.233C204.298 230.502 205.638 237.712 207.384 244.826C207.384 244.826 206.978 233.907 206.384 226.213C206.021 220.15 204.257 207.13 203.699 202.607C205.005 203.296 206.235 203.962 207.414 204.53C207.502 211.688 208.169 218.825 209.41 225.871C211.13 232.722 216.681 246.25 216.681 246.25C216.681 246.25 215.264 234.486 213.082 224.251C211.466 216.407 209.95 208.512 209.443 205.401L212.551 206.767C213.137 211.802 214.531 216.707 216.679 221.294C220.494 228.543 225.311 238.768 225.311 238.768C225.451 232.385 224.256 226.048 221.801 220.162C219.794 215.505 217.143 211.153 213.926 207.231C216.06 208.101 218.258 208.805 220.502 209.337C221.538 213.118 223.386 216.627 225.916 219.622C229.135 223.495 232.582 227.173 236.239 230.638C236.394 226.62 235.083 222.687 232.55 219.57C228.685 216.288 226.834 214.322 226.834 214.322C230.155 216.444 233.791 218.034 237.609 219.033C242.384 219.813 247.273 219.584 251.96 218.359C246.154 215.504 240.096 213.187 233.862 211.436C229.876 210.907 225.231 209.725 222.714 209.361C225.313 209.258 227.9 208.942 230.449 208.416C234.122 207.626 237.663 206.31 240.961 204.509C237.242 203.777 233.4 203.916 229.737 204.913C224.377 206.671 224.532 206.965 220.506 208.271C218.746 207.196 214.041 205.42 210.741 203.091C215.836 203.662 220.992 203.478 226.039 202.544C234.404 200.767 248.3 197.08 248.3 197.08C240.267 197.017 232.245 197.781 224.363 199.361C219.846 200.736 215.242 201.801 210.582 202.55C209.021 201.495 207.284 200.345 205.445 198.999C210.372 199.159 215.304 198.805 220.161 197.945C227.09 196.424 227.224 195.603 235.732 193.501C242.272 192.078 248.909 191.156 255.585 190.744C255.585 190.744 242.748 186.055 237.093 187.968C231.439 189.881 224.795 189.438 217.194 192.189C212.298 193.975 207.285 195.422 202.192 196.52C200.455 195.37 198.642 194.073 196.753 192.753C203.812 191.747 210.779 190.171 217.587 188.041C227.366 184.77 247.916 175.578 247.916 175.578C247.916 175.578 225.685 180.025 218.627 182.615C212.553 184.686 197.783 189.459 193.338 190.923C190.995 189.217 188.447 187.243 186.054 185.563C194.909 185.143 203.725 184.097 212.436 182.434C223.15 179.984 245.235 173.112 245.235 173.112C233.172 173.07 221.127 174.174 209.265 176.41C200.416 178.941 187.877 182.101 183.104 183.3C180.381 181.231 177.606 179.064 174.805 176.848C185.493 177.084 196.187 176.575 206.809 175.326C215.917 173.408 240.199 165.693 240.199 165.693C228.123 166.092 216.074 167.111 204.099 168.746C196.453 170.456 177.153 173.548 172.099 174.332C169.575 172.283 166.973 170.087 164.421 167.866C175.173 165.844 186.034 164.471 196.947 163.754C206.367 163.861 205.898 161.419 215.616 160.181C225.334 158.944 239.682 158.146 239.682 158.146C239.682 158.146 223.848 153.972 216.619 155.4C209.39 156.829 201.527 153.712 192.862 155.396C181.993 157.663 171.375 161.01 161.168 165.387C158.665 163.139 156.162 160.892 153.709 158.618C159.687 158.036 181.883 155.671 189.677 153.883C198.682 151.769 227.132 142.423 227.132 142.423C227.132 142.423 210.488 145.305 202.574 146.03C194.661 146.756 188.35 142.885 177.734 146.596C169.584 149.26 156.555 154.117 151.053 156.2C149.713 154.967 148.422 153.708 147.154 152.374C145.886 151.04 144.52 149.757 143.099 148.253C151.172 147.231 159.158 145.599 166.987 143.372C179.665 139.638 184.077 133.813 195.022 131.804C203.935 130.529 212.933 129.976 221.929 130.15C221.929 130.15 204.524 124.426 195.465 127.631C186.406 130.836 177.553 135.746 171.022 135.994C165.121 135.553 159.2 136.644 153.836 139.161C149.456 141.467 144.2 144.734 141.574 146.429C138.382 143.231 135.035 139.738 131.513 136.151C143.745 135.643 155.928 134.248 167.963 131.975C181.725 127.442 195.163 121.977 208.184 115.619C208.184 115.619 186.365 120.849 175.707 122.331C165.05 123.813 155.672 123.308 147.562 126.764C141.621 129.328 133.483 132.612 129.586 134.163L122.741 127.008C129.656 126.057 148.564 123.297 158.172 121.492C170.032 119.19 202.808 109.942 202.808 109.942C192.542 111.933 182.155 113.221 171.718 113.798C161.623 112.811 151.425 113.665 141.622 116.318C133.843 118.849 124.099 122.665 119.881 124.322C117.144 121.51 114.456 118.672 111.822 116.055C122.942 115.392 133.986 113.764 144.83 111.189C158.993 107.174 189.064 90.2811 189.064 90.2811C180.411 94.1922 171.265 96.9022 161.882 98.3352C150.224 99.4683 132.466 101.31 123.894 105.322C118.129 107.981 111.976 111.095 108.581 112.883L103.483 107.497C112.474 105.377 121.35 102.792 130.075 99.7539C143.8 94.906 185.103 77.9803 185.103 77.9803C185.103 77.9803 153.25 83.4892 140.057 86.2432C126.864 88.9973 120.839 92.3563 100.413 104.172C98.3087 101.965 96.2041 99.7576 94.2004 97.6224C101.649 96.7746 108.838 94.3552 115.288 90.525C131.294 82.1451 146.519 72.3513 160.779 61.2615C152.46 65.4226 143.919 69.1251 135.195 72.3521C127.193 74.9384 97.8155 90.4027 90.7295 94.1329C88.9296 92.2656 87.2047 90.4215 85.5056 88.6263C92.8876 88.1546 100.059 85.9444 106.431 82.177C119.584 74.6905 129.799 49.9233 129.799 49.9233C129.799 49.9233 117.334 71.3713 109.273 74.8015C101.212 78.2316 99.3515 75.7711 93.8214 78.9948C90.1591 81.2008 86.6209 83.6063 83.2229 86.2002C81.2449 84.114 80.4317 83.166 78.5802 81.2009C86.4076 78.56 93.378 73.8531 98.7485 67.582C103.048 62.8632 105.904 57.018 106.977 50.7408C102.982 55.2106 98.4104 59.1318 93.3818 62.4008C87.0331 67.199 81.3782 72.849 76.5788 79.1895C62.9321 64.6065 53.3421 54.2678 53.3421 54.2678L51.8523 62.1826C51.8523 62.1826 60.4535 71.478 74.8548 86.5395C66.5845 89.7617 58.8308 94.1805 51.844 99.6532C43.2418 108.041 35.4455 117.213 28.558 127.048C34.3863 120.572 40.62 114.47 47.2213 108.779C52.7793 103.101 59.3149 101.788 66.5484 96.6665Z" fill="#FFFFEC" fill-opacity="0.15"/>
</svg>
