<svg width="378" height="756" viewBox="0 0 378 756" fill="none" xmlns="http://www.w3.org/2000/svg">
<path d="M182.58 116.691C169.214 120.01 156.468 62.2256 156.468 62.2256C156.468 62.2256 139.307 65.7349 117.517 95.2885C89.4177 133.383 91.4331 201.236 136.225 213.615C141.842 215.256 147.75 215.606 153.513 214.639C159.276 213.673 164.745 211.415 169.515 208.032C163.524 206.768 157.762 204.578 152.433 201.543C143.248 196.256 135.258 189.103 128.974 180.541C136.253 187.002 144.203 192.655 152.685 197.403C159.345 200.677 166.537 202.708 173.913 203.399L178.613 197.833C165.748 190.231 153.724 181.274 142.744 171.113C135.588 165.204 130.025 157.58 126.571 148.946C131.165 156.953 137.295 163.967 144.604 169.578C156.771 178.448 169.985 185.765 183.941 191.359C187.937 186.397 192.059 181.082 196.432 175.489C190.124 169.847 184.524 163.454 179.755 156.452C173.969 147.549 169.851 137.661 167.604 127.277C172.386 136.544 177.745 145.5 183.65 154.09C188.168 160.453 194.103 165.668 200.981 169.316C209.074 158.937 217.041 148.053 224.983 137.067C220.289 132.178 216.352 126.608 213.305 120.545C210.26 114.922 208.966 108.513 209.592 102.152C211.505 108.035 214.154 113.651 217.476 118.865C220.561 123.7 224.779 127.701 229.758 130.517C240.49 115.727 289.627 45.9048 289.627 45.9048L248.205 109.841C258.94 111.62 269.827 112.261 280.689 111.755C288.375 110.999 295.871 108.92 302.85 105.61C302.85 105.61 295.036 108.945 283.227 112.52C270.691 115.035 257.876 115.872 245.113 115.008L219.752 154.247C229.796 157.728 240.094 160.41 250.552 162.267C266.36 164.384 282.294 165.376 298.235 165.236C283.756 167.715 269.026 168.418 254.369 167.328C241.381 166.02 228.518 163.651 215.907 160.245L198.338 187.463C210.712 195.118 223.674 201.767 237.097 207.349C252.379 211.21 267.885 214.098 283.523 215.996C267.531 217.503 251.392 215.938 235.966 211.385C217.678 205.195 200.571 197.746 193.612 194.645L187.831 203.592C195.125 214.096 204.085 223.327 214.354 230.915C228.595 239.794 243.613 247.344 259.218 253.47C242.736 249.439 226.849 243.245 211.966 235.049C201.95 228.063 192.771 219.936 184.613 210.829C183.725 212.409 182.946 213.997 182.276 215.594C182.742 222.908 184.908 230.015 188.601 236.343C192.949 242.286 198.336 247.385 204.5 251.389C196.955 248.74 190.344 243.927 185.485 237.546C182.621 233.865 180.343 229.761 178.73 225.381C164.697 276.294 231.342 300.201 279.009 273.88C316.525 253.084 343.071 199.28 343.071 199.28C329.943 203.973 316.112 206.391 302.168 206.431C282.772 205.666 247.199 199.905 245.069 183.158C242.938 166.411 309.028 200.542 340.637 186.471C367.347 174.582 357.667 115.821 357.667 115.821C356.733 120.621 354.758 125.153 351.882 129.094C349.007 133.035 345.301 136.289 341.028 138.623C326.931 148.025 271.483 148.593 265.834 136.583C259.156 120.857 327.009 140.602 343.525 105.705C352.977 85.7603 330.748 67.5649 320.678 51.5014C314.43 40.8197 310.888 28.7648 310.363 16.3985C310.363 16.3985 300.891 17.7844 279.66 21.6605C258.43 25.5366 241.147 16.0924 230.818 29.4948C220.488 42.8972 236.783 79.7346 224.799 78.7396C212.815 77.7445 218.909 30.9493 218.909 30.9493C218.909 30.9493 208.859 33.4445 185.994 40.1943C163.13 46.944 195.319 113.421 182.58 116.691Z" fill="#367B79" fill-opacity="0.2"/>
<path d="M128.919 603.551C129.285 625.796 33.7023 624.86 33.7023 624.86C33.7023 624.86 32.9901 653.145 71.5887 698.183C121.338 756.253 228.869 777.737 264.63 711.734C269.254 703.49 271.952 694.317 272.525 684.895C273.098 675.473 271.531 666.044 267.94 657.307C263.773 666.277 258.233 674.552 251.519 681.836C239.86 694.372 225.698 704.349 209.938 711.129C222.752 702.02 234.539 691.561 245.094 679.934C252.667 670.642 258.479 660.059 262.246 648.702L255.193 639.282C238.553 656.767 220.085 672.439 200.102 686.029C188.2 695.145 174.179 701.13 159.335 703.43C173.607 699.108 186.874 692.009 198.362 682.544C216.744 666.616 233.062 648.477 246.94 628.543C240.581 620.45 233.712 612.031 226.499 603.115C215.327 610.993 203.229 617.484 190.475 622.446C174.359 628.317 157.299 631.207 140.139 630.971C156.463 626.812 172.506 621.63 188.172 615.457C199.83 610.659 210.195 603.211 218.436 593.712C205.041 577.203 190.804 560.707 176.399 544.214C166.998 549.826 156.8 553.999 146.149 556.591C136.193 559.341 125.635 559.048 115.85 555.751C125.804 554.878 135.607 552.749 145.022 549.415C153.752 546.317 161.583 541.133 167.824 534.317C148.445 512.051 56.4014 409.339 56.4014 409.339L141.984 497.77C148.684 481.52 153.651 464.616 156.801 447.336C158.403 434.963 157.855 422.409 155.181 410.222C155.181 410.222 157.59 423.734 158.927 443.62C158.331 464.264 154.991 484.74 148.993 504.513L201.539 558.69C210.668 544.147 218.631 528.912 225.354 513.127C234.431 489.015 241.783 464.295 247.355 439.153C245.995 462.844 241.748 486.283 234.708 508.958C227.928 528.925 219.526 548.311 209.583 566.923L246.039 604.467C262.584 587.77 277.76 569.786 291.423 550.685C303.054 528.036 313.234 504.679 321.903 480.754C318.464 506.473 310.137 531.307 297.365 553.934C280.977 580.469 263.036 604.689 255.626 614.514L267.607 626.864C286.791 619.202 304.577 608.452 320.252 595.047C339.401 575.858 356.742 554.964 372.055 532.628C359.721 557.105 344.2 579.86 325.891 600.308C311.256 613.534 295.127 625.028 277.829 634.559C279.993 636.531 282.21 638.335 284.48 639.97C296.162 641.895 308.135 641.067 319.437 637.555C330.371 632.87 340.354 626.243 348.896 617.997C341.985 628.909 332.007 637.566 320.198 642.896C313.364 646.065 306.076 648.161 298.596 649.107C373.632 689.696 435.479 593.484 411.372 508.893C392.273 442.288 317.231 380.953 317.231 380.953C319.847 403.321 318.627 425.969 313.623 447.932C305.372 478.182 283.377 532.08 256.243 529.348C229.109 526.616 306.848 434.995 296.186 380.129C287.178 333.768 191.173 327.652 191.173 327.652C198.389 330.866 204.804 335.621 209.962 341.58C215.12 347.538 218.895 354.553 221.017 362.127C230.693 387.732 211.438 475.212 190.481 479.739C163.303 484.537 219.037 384.912 170.111 346.235C142.153 324.11 105.437 352.486 76.4937 362.499C57.4107 368.451 37.1491 369.646 17.4939 365.979C17.4939 365.979 16.2334 381.392 14.6195 416.217C13.0056 451.042 -8.13943 474.812 9.20202 495.941C26.5435 517.069 90.4461 504.808 84.5253 523.309C78.6045 541.809 7.16383 515.214 7.16383 515.214C7.16383 515.214 7.43929 531.939 9.75474 570.38C12.0702 608.821 128.401 582.312 128.919 603.551Z" fill="#FFFFEC" fill-opacity="0.03"/>
</svg>
