<svg width="641" height="775" viewBox="0 0 641 775" fill="none" xmlns="http://www.w3.org/2000/svg">
<path d="M122.841 309.652C93.158 321.012 47.7123 192.243 47.7123 192.243C47.7123 192.243 9.39354 205.107 -32.2062 278.927C-85.8533 374.085 -62.1543 528.934 43.922 544.691C57.2486 546.87 70.8812 546.01 83.8092 542.176C96.7372 538.342 108.629 531.631 118.603 522.542C104.525 521.33 90.711 517.937 77.6515 512.482C55.1266 502.956 34.8131 488.819 18.0118 470.976C36.5012 483.726 56.3005 494.439 77.0653 502.928C93.2392 508.554 110.286 511.185 127.373 510.693L136.573 496.622C104.969 482.828 74.9086 465.694 46.9013 445.508C28.848 433.985 13.9628 418.086 3.6227 399.284C16.3973 416.331 32.4097 430.671 50.729 441.47C81.092 458.364 113.416 471.406 146.956 480.296C154.713 467.806 162.659 454.472 171.103 440.432C155.07 429.283 140.444 416.215 127.552 401.517C111.796 382.752 99.5819 361.263 91.5141 338.111C105.073 357.992 119.867 376.997 135.808 395.012C147.946 408.316 163.008 418.592 179.787 425.014C195.404 398.965 210.592 371.794 225.694 344.398C213.567 334.52 202.983 322.869 194.3 309.837C185.743 297.815 180.978 283.5 180.623 268.752C186.658 281.689 194.306 293.808 203.381 304.817C211.805 315.024 222.592 323.002 234.79 328.051C255.212 291.156 348.123 117.411 348.123 117.411L271.227 275.506C296.315 276.561 321.433 274.968 346.17 270.755C363.562 266.859 380.147 259.989 395.2 250.445C395.2 250.445 378.24 260.282 352.197 271.793C324.192 281.079 295.074 286.599 265.599 288.21L218.545 385.219C242.528 390.368 266.87 393.614 291.346 394.927C328.149 395.33 364.926 393.122 401.4 388.317C368.932 398.067 335.391 403.819 301.513 405.446C271.396 406.101 241.267 404.293 211.424 400.039L178.836 467.323C209.333 481.375 240.891 492.961 273.208 501.97C309.295 506.516 345.624 508.771 381.977 508.719C345.772 516.668 308.365 517.624 271.751 511.534C228.121 502.499 186.843 490.249 170.033 485.102L159.308 507.22C178.967 529.229 202.088 547.853 227.742 562.345C262.858 578.676 299.379 591.746 336.846 601.389C297.961 596.791 259.83 587.073 223.435 572.485C198.529 559.301 175.219 543.267 153.972 524.702C152.382 528.57 151.044 532.428 149.958 536.275C153.082 552.896 160.043 568.565 170.281 582.021C181.911 594.409 195.686 604.572 210.928 612.011C192.904 608.065 176.407 598.9 163.483 585.652C155.888 578.026 149.515 569.267 144.59 559.687C126.764 680.249 286.14 716.265 387.918 642.572C467.998 584.389 513.669 453.684 513.669 453.684C484.92 468.125 453.921 477.553 421.992 481.567C377.353 485.27 294.252 482.078 284.662 444.318C275.072 406.559 436.05 466.15 504.494 425.03C562.328 390.286 523.629 258.419 523.629 258.419C522.841 269.676 519.592 280.611 514.113 290.446C508.635 300.282 501.062 308.776 491.932 315.326C462.287 340.825 335.444 357.72 319.127 331.799C299.408 297.658 460.377 323.8 488.393 239.224C504.434 190.883 448.401 155.458 420.819 121.497C403.504 98.7877 392 72.1722 387.319 43.9951C387.319 43.9951 366.013 49.8334 318.475 64.6823C270.937 79.5312 228.696 62.7599 208.805 96.363C188.914 129.966 236.597 209.759 208.869 210.85C181.14 211.942 181.937 103.044 181.937 103.044C181.937 103.044 159.619 111.586 109.146 133.476C58.6741 155.366 151.099 298.579 122.841 309.652Z" fill="#FFFFEC" fill-opacity="0.03"/>
</svg>
